<svg width="24.986328" height="21.608398" viewBox="0 0 24.9863 21.6084" fill="none" xmlns="http://www.w3.org/2000/svg" xmlns:xlink="http://www.w3.org/1999/xlink">
	<desc>
			Created with Pixso.
	</desc>
	<defs>
		<clipPath id="clip2_6906">
			<rect id="Icons-dribbble" width="14.575342" height="12.604972" transform="translate(5.205566 4.501953)" fill="white" fill-opacity="0"/>
		</clipPath>
	</defs>
	<ellipse id="Ellipse 9" cx="12.493164" cy="10.804199" rx="12.493151" ry="10.804261" fill="#FFB400" fill-opacity="1.000000"/>
	<rect id="Icons-dribbble" width="14.575342" height="12.604972" transform="translate(5.205566 4.501953)" fill="#FFFFFF" fill-opacity="0"/>
	<rect id="Icons-dribbble" width="14.575342" height="12.604972" transform="translate(5.205566 4.501953)" fill="#FFFFFF" fill-opacity="0"/>
	<rect id="Icons-dribbble" width="14.575342" height="12.604972" transform="translate(5.205566 4.501953)" fill="#FFFFFF" fill-opacity="0"/>
	<g clip-path="url(#clip2_6906)">
		<path id="Vector" d="M17.3447 10.5801C17.2949 9.75342 16.9624 8.95801 16.3896 8.29492C16.2148 8.45752 16.0283 8.60986 15.8306 8.75195C15.2241 9.1875 14.5459 9.54346 13.8188 9.80762C13.9199 9.99121 14.0132 10.1694 14.0952 10.3374L14.0952 10.3389C14.1182 10.3857 14.1406 10.4331 14.1616 10.481C15.0815 10.3916 16.0508 10.4238 16.9902 10.5337C17.1152 10.5483 17.2329 10.5645 17.3447 10.5801ZM11.645 6.66699C12.2368 7.38818 12.7827 8.13721 13.2803 8.90967C14.0229 8.65674 14.6367 8.3374 15.1313 7.98193C15.3027 7.85938 15.4644 7.72705 15.6147 7.58545C14.7407 6.94971 13.6348 6.60156 12.4932 6.60303C12.209 6.60303 11.9253 6.62402 11.645 6.6665L11.645 6.66699ZM7.78809 9.75293C8.20166 9.74365 8.61523 9.72217 9.02686 9.68799C10.0229 9.61133 11.0103 9.4668 11.98 9.25635C11.4731 8.49512 10.9258 7.75439 10.3398 7.03662C9.71436 7.30469 9.1626 7.68604 8.72217 8.1543C8.28223 8.62305 7.96338 9.16846 7.78809 9.75293ZM8.71729 13.4492C8.95312 13.1514 9.2627 12.8164 9.67383 12.4517C10.5571 11.6694 11.5991 11.0601 12.8052 10.7241L12.8428 10.7144C12.7427 10.5234 12.6484 10.3525 12.5537 10.1919C11.4385 10.4727 10.2642 10.6484 9.09375 10.7393C8.52295 10.7837 8.01123 10.8032 7.63477 10.8062C7.6333 11.769 8.01611 12.7021 8.71777 13.4492L8.71729 13.4492ZM14.3179 14.6992C14.0835 13.6777 13.7524 12.6748 13.3267 11.7007C12.1108 12.0825 11.1421 12.6411 10.3936 13.3071C10.0913 13.5708 9.82324 13.8623 9.59375 14.1763C10.4312 14.7163 11.4482 15.0078 12.4932 15.0063C13.1187 15.0073 13.7383 14.9033 14.3179 14.7002L14.3179 14.6992ZM15.4556 14.1348C16.4038 13.5044 17.0493 12.5938 17.2695 11.5767C17.063 11.5322 16.8013 11.4878 16.5132 11.4531C15.8735 11.373 15.2241 11.3672 14.582 11.4355C14.9434 12.3174 15.2354 13.2192 15.4556 14.1353L15.4556 14.1348ZM12.4932 16.0566C9.13867 16.0566 6.41992 13.7056 6.41992 10.8047C6.41992 7.9043 9.13867 5.55273 12.4932 5.55273C15.8472 5.55273 18.5659 7.9043 18.5659 10.8047C18.5659 13.7056 15.8472 16.0566 12.4932 16.0566Z" fill="#2B2B2B" fill-opacity="1.000000" fill-rule="nonzero"/>
	</g>
</svg>
