<svg width="26" height="23" viewBox="0 0 26 23" fill="none" xmlns="http://www.w3.org/2000/svg">
<ellipse cx="13.0957" cy="11.4048" rx="12.4932" ry="10.8043" fill="#FFB400"/>
<g clip-path="url(#clip0_2_460)">
<path d="M13.096 6.15283C14.7461 6.15283 14.9519 6.15808 15.5993 6.18434C16.2461 6.2106 16.6864 6.29831 17.0739 6.42857C17.4747 6.56197 17.8123 6.74264 18.15 7.03413C18.4588 7.29668 18.6978 7.61427 18.8502 7.9648C19.0002 8.29935 19.1023 8.68065 19.1326 9.24C19.1612 9.79987 19.1691 9.97792 19.1691 11.4049C19.1691 12.8319 19.163 13.0099 19.1326 13.5698C19.1023 14.1292 19.0002 14.5099 18.8502 14.845C18.6982 15.1957 18.4592 15.5134 18.15 15.7757C17.8463 16.0427 17.4791 16.2493 17.0739 16.3812C16.687 16.511 16.2461 16.5992 15.5993 16.6255C14.9519 16.6501 14.7461 16.657 13.096 16.657C11.446 16.657 11.2401 16.6517 10.5927 16.6255C9.94591 16.5992 9.50562 16.511 9.11815 16.3812C8.71267 16.2497 8.34537 16.043 8.04201 15.7757C7.73314 15.5132 7.49418 15.1956 7.34178 14.845C7.19117 14.5105 7.08975 14.1292 7.05939 13.5698C7.03084 13.0099 7.02295 12.8319 7.02295 11.4049C7.02295 9.97792 7.02902 9.79987 7.05939 9.24C7.08975 8.68013 7.19117 8.29988 7.34178 7.9648C7.49375 7.61405 7.73277 7.29638 8.04201 7.03413C8.34546 6.76692 8.71273 6.56025 9.11815 6.42857C9.50562 6.29831 9.94531 6.2106 10.5927 6.18434C11.2401 6.15966 11.446 6.15283 13.096 6.15283ZM13.096 8.77887C12.2907 8.77887 11.5183 9.05554 10.9489 9.54802C10.3794 10.0405 10.0595 10.7084 10.0595 11.4049C10.0595 12.1014 10.3794 12.7693 10.9489 13.2618C11.5183 13.7543 12.2907 14.0309 13.096 14.0309C13.9013 14.0309 14.6737 13.7543 15.2432 13.2618C15.8126 12.7693 16.1325 12.1014 16.1325 11.4049C16.1325 10.7084 15.8126 10.0405 15.2432 9.54802C14.6737 9.05554 13.9013 8.77887 13.096 8.77887ZM17.0435 8.64757C17.0435 8.47345 16.9635 8.30646 16.8212 8.18334C16.6788 8.06022 16.4857 7.99106 16.2844 7.99106C16.083 7.99106 15.8899 8.06022 15.7476 8.18334C15.6052 8.30646 15.5252 8.47345 15.5252 8.64757C15.5252 8.82168 15.6052 8.98867 15.7476 9.11179C15.8899 9.23491 16.083 9.30408 16.2844 9.30408C16.4857 9.30408 16.6788 9.23491 16.8212 9.11179C16.9635 8.98867 17.0435 8.82168 17.0435 8.64757ZM13.096 9.82928C13.5792 9.82928 14.0426 9.99528 14.3843 10.2908C14.726 10.5863 14.9179 10.987 14.9179 11.4049C14.9179 11.8228 14.726 12.2236 14.3843 12.519C14.0426 12.8145 13.5792 12.9805 13.096 12.9805C12.6128 12.9805 12.1494 12.8145 11.8077 12.519C11.466 12.2236 11.2741 11.8228 11.2741 11.4049C11.2741 10.987 11.466 10.5863 11.8077 10.2908C12.1494 9.99528 12.6128 9.82928 13.096 9.82928Z" fill="#2B2B2B"/>
</g>
<defs>
<clipPath id="clip0_2_460">
<rect width="14.5753" height="12.605" fill="white" transform="translate(5.80811 5.10254)"/>
</clipPath>
</defs>
</svg>
