<svg width="31" height="30" viewBox="0 0 31 30" fill="none" xmlns="http://www.w3.org/2000/svg">
<g clip-path="url(#clip0_2_576)">
<path d="M16.0047 27C9.03698 27 3.38892 21.4037 3.38892 14.5C3.38892 7.59625 9.03698 2 16.0047 2C22.9723 2 28.6204 7.59625 28.6204 14.5C28.6204 21.4037 22.9723 27 16.0047 27ZM7.5887 20.0312C8.41791 21.2605 9.51192 22.2923 10.792 23.0523C12.072 23.8123 13.5062 24.2816 14.9913 24.4264C16.4764 24.5712 17.9754 24.3879 19.3804 23.8897C20.7854 23.3915 22.0614 22.5908 23.1165 21.5452C24.1717 20.4997 24.9797 19.2353 25.4824 17.8432C25.9851 16.451 26.1699 14.9657 26.0237 13.4943C25.8774 12.0228 25.4036 10.6018 24.6365 9.3336C23.8693 8.06538 22.8279 6.98149 21.5871 6.16C22.1311 8.08278 22.1486 10.1144 21.6377 12.0461C21.1269 13.9778 20.1062 15.7398 18.6805 17.1513C17.2561 18.5637 15.4779 19.5749 13.5286 20.081C11.5793 20.5872 9.5291 20.57 7.5887 20.0312Z" fill="#2B2B2B"/>
</g>
<defs>
<clipPath id="clip0_2_576">
<rect width="30.2778" height="30" fill="white" transform="translate(0.361084)"/>
</clipPath>
</defs>
</svg>
