<svg width="41" height="40" viewBox="0 0 41 40" fill="none" xmlns="http://www.w3.org/2000/svg">
<ellipse cx="20.4999" cy="20" rx="20.1852" ry="20" fill="#F0F0F6"/>
<g clip-path="url(#clip0_2_594)">
<path d="M24.2983 22.272L20.7522 25.6259L17.206 22.272C14.5483 22.381 12.4258 24.4376 12.4258 26.9759V27.3134C12.4258 28.245 13.225 29.0009 14.21 29.0009H27.2943C28.2794 29.0009 29.0786 28.245 29.0786 27.3134V26.9759C29.0786 24.4376 26.9561 22.381 24.2983 22.272ZM12.9313 13.8064L13.1692 13.8591V15.9122C12.909 16.0599 12.7232 16.3165 12.7232 16.6259C12.7232 16.9212 12.8941 17.1673 13.1358 17.3185L12.5559 19.5087C12.4927 19.7513 12.6339 20.0009 12.8384 20.0009H14.3921C14.5966 20.0009 14.7378 19.7513 14.6746 19.5087L14.0948 17.3185C14.3364 17.1673 14.5074 16.9212 14.5074 16.6259C14.5074 16.3165 14.3215 16.0599 14.0613 15.9122V14.063L16.5146 14.622C16.195 15.2267 15.9942 15.9017 15.9942 16.6259C15.9942 19.1114 18.1242 21.1259 20.7522 21.1259C23.3802 21.1259 25.5101 19.1114 25.5101 16.6259C25.5101 15.9017 25.3131 15.2267 24.9897 14.622L28.5693 13.8064C29.2458 13.6517 29.2458 12.8536 28.5693 12.6989L21.4919 11.0817C21.0087 10.9728 20.4994 10.9728 20.0162 11.0817L12.9313 12.6954C12.2585 12.8501 12.2585 13.6517 12.9313 13.8064Z" fill="#767676"/>
</g>
<defs>
<clipPath id="clip0_2_594">
<rect width="18.1667" height="18" fill="white" transform="translate(11.4165 11)"/>
</clipPath>
</defs>
</svg>
