<svg width="41" height="40" viewBox="0 0 41 40" fill="none" xmlns="http://www.w3.org/2000/svg">
<ellipse cx="20.4999" cy="20" rx="20.1852" ry="20" fill="#F0F0F6"/>
<g clip-path="url(#clip0_2_598)">
<path d="M18.229 20.75V23H22.7707V20.75H28.0693V26C28.0693 26.1989 27.9896 26.3897 27.8476 26.5303C27.7057 26.671 27.5131 26.75 27.3124 26.75H13.6874C13.4866 26.75 13.2941 26.671 13.1521 26.5303C13.0102 26.3897 12.9304 26.1989 12.9304 26V20.75H18.229ZM19.7429 19.25H21.2568V21.5H19.7429V19.25ZM16.7151 14.75V12.5C16.7151 12.3011 16.7949 12.1103 16.9368 11.9697C17.0788 11.829 17.2713 11.75 17.4721 11.75H23.5276C23.7284 11.75 23.9209 11.829 24.0629 11.9697C24.2048 12.1103 24.2846 12.3011 24.2846 12.5V14.75H27.3124C27.5131 14.75 27.7057 14.829 27.8476 14.9697C27.9896 15.1103 28.0693 15.3011 28.0693 15.5V19.25H22.7707V17.75H18.229V19.25H12.9304V15.5C12.9304 15.3011 13.0102 15.1103 13.1521 14.9697C13.2941 14.829 13.4866 14.75 13.6874 14.75H16.7151ZM18.229 13.25V14.75H22.7707V13.25H18.229Z" fill="#767676"/>
</g>
<defs>
<clipPath id="clip0_2_598">
<rect width="18.1667" height="18" fill="white" transform="translate(11.4165 11)"/>
</clipPath>
</defs>
</svg>
