<svg width="41" height="40" viewBox="0 0 41 40" fill="none" xmlns="http://www.w3.org/2000/svg">
<ellipse cx="20.4999" cy="20" rx="20.1852" ry="20" fill="#F0F0F6"/>
<g clip-path="url(#clip0_2_590)">
<path d="M28.9165 15.287V15.5H23.4165V11H23.6769C23.9503 11 24.2127 11.0889 24.4061 11.2471L28.6145 14.6904C28.8079 14.8486 28.9165 15.0632 28.9165 15.287ZM23.0728 16.625C22.5056 16.625 22.0415 16.2453 22.0415 15.7812V11H13.4478C12.8782 11 12.4165 11.3778 12.4165 11.8438V28.1562C12.4165 28.6222 12.8782 29 13.4478 29H27.8853C28.4548 29 28.9165 28.6222 28.9165 28.1562V16.625H23.0728ZM17.7105 25.0803C17.6897 25.0984 17.6647 25.1131 17.6369 25.1234C17.6091 25.1337 17.5792 25.1394 17.5487 25.1402C17.5183 25.141 17.4879 25.1368 17.4594 25.1281C17.4309 25.1193 17.4048 25.106 17.3825 25.0889L14.5953 22.951C14.5722 22.9332 14.5537 22.9118 14.5411 22.888C14.5285 22.8641 14.522 22.8384 14.522 22.8125C14.522 22.7865 14.5285 22.7608 14.5411 22.737C14.5537 22.7132 14.5722 22.6917 14.5953 22.674L17.3825 20.5361C17.4048 20.519 17.4309 20.5057 17.4594 20.4969C17.4879 20.4881 17.5183 20.484 17.5487 20.4848C17.5792 20.4856 17.6091 20.4913 17.6369 20.5016C17.6647 20.5119 17.6897 20.5265 17.7105 20.5447L18.5518 21.2789C18.5731 21.2975 18.5895 21.3194 18.6003 21.3432C18.611 21.3671 18.6158 21.3925 18.6143 21.4179C18.6128 21.4433 18.6051 21.4682 18.5916 21.4911C18.5781 21.514 18.5591 21.5345 18.5358 21.5513L16.7843 22.8125L18.5358 24.0737C18.5591 24.0905 18.5781 24.111 18.5916 24.1339C18.6051 24.1568 18.6128 24.1817 18.6143 24.2071C18.6158 24.2325 18.611 24.2579 18.6003 24.2818C18.5895 24.3056 18.5731 24.3275 18.5518 24.3461L17.7105 25.0803ZM19.9146 26.8549L18.735 26.5747C18.6759 26.5607 18.626 26.528 18.5964 26.4839C18.5667 26.4398 18.5597 26.3878 18.5768 26.3394L21.2168 18.8995C21.234 18.8511 21.2739 18.8103 21.3278 18.7861C21.3818 18.7618 21.4452 18.756 21.5044 18.7701L22.6839 19.0503C22.7132 19.0572 22.7405 19.0688 22.7643 19.0844C22.7881 19.1 22.8079 19.1192 22.8225 19.1411C22.8372 19.1629 22.8465 19.1869 22.8499 19.2117C22.8532 19.2365 22.8506 19.2616 22.8421 19.2855L20.2021 26.7255C20.1936 26.7494 20.1794 26.7718 20.1604 26.7913C20.1413 26.8107 20.1178 26.8269 20.0911 26.8389C20.0644 26.851 20.0351 26.8586 20.0048 26.8613C19.9745 26.864 19.9439 26.8619 19.9146 26.8549ZM26.8236 22.951L24.0364 25.0889C24.0142 25.106 23.9881 25.1193 23.9596 25.1281C23.931 25.1368 23.9007 25.141 23.8702 25.1402C23.8398 25.1394 23.8098 25.1337 23.7821 25.1234C23.7543 25.1131 23.7293 25.0984 23.7084 25.0803L22.8671 24.346C22.8458 24.3275 22.8294 24.3056 22.8186 24.2817C22.8079 24.2579 22.8031 24.2325 22.8046 24.2071C22.8061 24.1817 22.8138 24.1568 22.8273 24.1338C22.8408 24.1109 22.8598 24.0905 22.8831 24.0737L24.6347 22.8125L22.8831 21.5513C22.8598 21.5345 22.8408 21.514 22.8273 21.4911C22.8139 21.4682 22.8062 21.4433 22.8047 21.4179C22.8032 21.3925 22.8079 21.3671 22.8187 21.3432C22.8294 21.3194 22.8459 21.2975 22.8671 21.2789L23.7085 20.5447C23.7293 20.5265 23.7543 20.5119 23.7821 20.5016C23.8099 20.4913 23.8398 20.4856 23.8703 20.4848C23.9007 20.484 23.9311 20.4881 23.9596 20.4969C23.9881 20.5057 24.0142 20.519 24.0365 20.5361L26.8237 22.674C26.8468 22.6917 26.8653 22.7132 26.8779 22.737C26.8905 22.7608 26.897 22.7865 26.897 22.8125C26.897 22.8385 26.8905 22.8641 26.8778 22.888C26.8652 22.9118 26.8468 22.9332 26.8236 22.951Z" fill="#767676"/>
</g>
<defs>
<clipPath id="clip0_2_590">
<rect width="16.5" height="18" fill="white" transform="translate(12.4165 11)"/>
</clipPath>
</defs>
</svg>
